<?xml version="1.0" encoding="UTF-8"?>
<svg version="1.1" xmlns="http://www.w3.org/2000/svg" width="352" height="192">
<path d="M0 0 C116.16 0 232.32 0 352 0 C352 63.36 352 126.72 352 192 C235.84 192 119.68 192 0 192 C0 128.64 0 65.28 0 0 Z " fill="#FDFEFE" transform="translate(0,0)"/>
<path d="M0 0 C0.76376953 -0.00386719 1.52753906 -0.00773437 2.31445312 -0.01171875 C6.95763212 -0.0037749 11.35747885 0.35862196 15.9375 1.125 C15.9375 1.785 15.9375 2.445 15.9375 3.125 C17.29875 3.186875 17.29875 3.186875 18.6875 3.25 C31.72493502 5.21741977 43.59750363 15.33556563 51.3125 25.5 C61.66263914 40.82078809 66.81930063 57.94337849 63.53027344 76.41162109 C59.49390385 94.38085412 50.07244596 109.48713719 34.484375 119.6640625 C18.70988177 128.7126215 0.62376289 131.93188029 -17.3125 128.125 C-32.04756363 123.67978527 -44.99413962 114.59134084 -54.0625 102.125 C-54.0625 101.465 -54.0625 100.805 -54.0625 100.125 C-55.7125 100.125 -57.3625 100.125 -59.0625 100.125 C-59.08569263 91.86679344 -59.10345037 83.60860055 -59.11431217 75.35036945 C-59.11952586 71.51555034 -59.12659599 67.68075354 -59.13793945 63.84594727 C-59.14882217 60.14364084 -59.15478825 56.44135585 -59.15737724 52.73903465 C-59.15922179 51.32808279 -59.16282371 49.91713206 -59.16823006 48.50618935 C-59.17551184 46.52668024 -59.17590867 44.54714945 -59.17602539 42.56762695 C-59.178246 41.44177689 -59.18046661 40.31592682 -59.18275452 39.15596008 C-59.0625 36.125 -59.0625 36.125 -58.43040466 33.34733582 C-58.30899612 32.613965 -58.18758759 31.88059418 -58.0625 31.125 C-58.7225 30.465 -59.3825 29.805 -60.0625 29.125 C-60.69225836 26.04281724 -60.63758919 23.21344197 -60.0625 20.125 C-57.24745396 16.29340955 -57.24745396 16.29340955 -54.0625 15.125 C-51.30859375 15.07421875 -51.30859375 15.07421875 -48.25 15.25 C-42.16542915 15.52725261 -39.78876448 13.98863319 -35.35546875 10.015625 C-30.16863237 5.73891494 -23.84389815 2.72250694 -17.0625 3.125 C-17.0625 2.465 -17.0625 1.805 -17.0625 1.125 C-11.33103124 0.30342427 -5.78628297 -0.02944673 0 0 Z " fill="#5BDFE4" transform="translate(253.0625,37.875)"/>
<path d="M0 0 C6.1998662 3.28972492 11.24354954 8.56346648 14.4375 14.8125 C15 17 15 17 15 20 C12.06097651 20.13481759 9.12810441 20.23399416 6.1875 20.3125 C5.35412109 20.35439453 4.52074219 20.39628906 3.66210938 20.43945312 C1.34094988 20.48606275 -0.7272365 20.48021804 -3 20 C-4.96875 17.5625 -4.96875 17.5625 -6 15 C-9.5961699 12.20297897 -13.65010184 12.78952106 -18 13 C-18.99 13.495 -18.99 13.495 -20 14 C-20 15.65 -20 17.3 -20 19 C-15.38755076 20.46356562 -10.78559387 21.85148719 -6.0546875 22.87890625 C8.83219013 26.16066682 8.83219013 26.16066682 14 32 C16.93546962 36.6731891 16.7016515 41.66744858 16 47 C13.9520554 52.6580423 10.28777264 56.16032407 5.08984375 59.03515625 C-4.33470678 63.38630388 -15.09219679 63.2552843 -24.81640625 59.91015625 C-31.90639892 56.95493569 -35.83308862 52.25036707 -40 46 C-40.125 42.8125 -40.125 42.8125 -40 40 C-37.26843041 39.83737072 -34.54657878 39.71889314 -31.8125 39.625 C-31.04357422 39.57472656 -30.27464844 39.52445313 -29.48242188 39.47265625 C-23.79261874 39.32613771 -23.79261874 39.32613771 -21.43896484 41.32714844 C-20.23352865 42.83948046 -19.11232977 44.41792951 -18 46 C-15.21398777 46.92867074 -13.38933911 47.16342217 -10.5 47.1875 C-9.33984375 47.20876953 -9.33984375 47.20876953 -8.15625 47.23046875 C-5.70319944 47.13661528 -5.70319944 47.13661528 -3 45 C-2.27034634 42.43717258 -2.27034634 42.43717258 -2 40 C-3.01578125 39.75765625 -4.0315625 39.5153125 -5.078125 39.265625 C-31.51259335 32.87211224 -31.51259335 32.87211224 -36.59375 25.7734375 C-39.1330221 20.76542863 -38.59360495 15.47358986 -38 10 C-35.52666543 3.97796801 -30.68407841 1.62744693 -25 -1 C-17.30316113 -3.56561296 -7.58707602 -2.70967001 0 0 Z " fill="#050505" transform="translate(168,77)"/>
<path d="M0 0 C6.27 0 12.54 0 19 0 C21.56280481 6.86465573 23.89250237 13.7356196 25.97265625 20.76171875 C27.18018868 24.56797116 28.57362616 28.27041627 30 32 C33.37514406 21.34579524 36.73093894 10.687315 40 0 C46.27 0 52.54 0 59 0 C58.25095142 5.24334003 57.7983218 7.98850641 55.75 12.5 C53.74904321 17.09990067 52.03487139 21.72754728 50.5 26.5 C48.69443042 32.08907141 46.5904064 37.47067124 44.265625 42.86328125 C42.50080989 47.23719031 41.04438143 51.69746646 39.61132812 56.18945312 C38.09617018 60.90382982 38.09617018 60.90382982 37 62 C34.46950598 62.07313567 31.96695163 62.09247527 29.4375 62.0625 C28.72658203 62.05798828 28.01566406 62.05347656 27.28320312 62.04882812 C25.52209987 62.03700864 23.76103964 62.01907263 22 62 C21.70867188 61.16339844 21.41734375 60.32679688 21.1171875 59.46484375 C18.87653991 53.10225012 16.54864826 46.80866905 14 40.5625 C11.41742223 34.22818775 9.21184894 27.8180132 7.08984375 21.31640625 C5.39749565 16.16657278 3.51745976 11.14096773 1.3125 6.1875 C0 3 0 3 0 0 Z " fill="#050505" transform="translate(33,76)"/>
<path d="M0 0 C5.94 0 11.88 0 18 0 C18 6.93 18 13.86 18 21 C21.63 21 25.26 21 29 21 C29 25.62 29 30.24 29 35 C25.37 35 21.74 35 18 35 C18.11797018 39.39675988 18.24219726 43.79328399 18.37231445 48.18969727 C18.41571813 49.68639269 18.45738913 51.18313939 18.49731445 52.67993164 C18.55488616 54.82714312 18.61861716 56.97409521 18.68359375 59.12109375 C18.72025146 60.4145874 18.75690918 61.70808105 18.79467773 63.04077148 C18.6667278 65.88555008 18.6667278 65.88555008 20 67 C22.98889359 67.45765667 25.98969648 67.70320951 29 68 C29 72.95 29 77.9 29 83 C25.79075291 83.10837983 22.5851973 83.18749268 19.375 83.25 C18.47136719 83.28351563 17.56773437 83.31703125 16.63671875 83.3515625 C10.91116554 83.43514722 7.43164488 83.00893414 3 79 C-0.56960903 74.47410339 -0.39607773 70.48937217 -0.29296875 64.98046875 C-0.28872391 64.12189774 -0.28447906 63.26332672 -0.28010559 62.3787384 C-0.26336995 59.64800086 -0.22572766 56.91801288 -0.1875 54.1875 C-0.17244653 52.3313909 -0.15875928 50.47527018 -0.14648438 48.61914062 C-0.11348323 44.07914015 -0.06173659 39.53969698 0 35 C-2.64 35 -5.28 35 -8 35 C-8 30.38 -8 25.76 -8 21 C-5.36 21 -2.72 21 0 21 C0 14.07 0 7.14 0 0 Z " fill="#010303" transform="translate(229,55)"/>
<path d="M0 0 C5.94 0 11.88 0 18 0 C18 20.46 18 40.92 18 62 C12.06 62 6.12 62 0 62 C0 41.54 0 21.08 0 0 Z " fill="#020404" transform="translate(194,76)"/>
<path d="M0 0 C5.61 0 11.22 0 17 0 C17 20.46 17 40.92 17 62 C11.39 62 5.78 62 0 62 C0 41.54 0 21.08 0 0 Z " fill="#000000" transform="translate(100,76)"/>
<path d="M0 0 C5.53846154 3.07692308 5.53846154 3.07692308 7 6 C7.47904564 10.23156979 7.47185676 12.29982545 5.0625 15.875 C1.166803 18.5781367 -2.274229 19.32970495 -7 19 C-10.39027976 17.60723642 -12.23393766 16.26721534 -14 13 C-14.5 9.5625 -14.5 9.5625 -14 6 C-9.62039058 0.69836754 -6.83684032 -0.56973669 0 0 Z " fill="#0B0B0B" transform="translate(112,53)"/>
<path d="M0 0 C2.98378258 1.32120881 3.80969322 2.3168742 6 5 C6.78329984 8.16701087 6.81004247 10.83669546 6 14 C2.86165316 17.30352299 0.2553012 18.85515755 -4.25 19.375 C-9.13275687 18.88672431 -10.85859952 17.75435667 -14 14 C-14.86177281 10.8016083 -14.85620882 8.19921269 -14 5 C-10.0812122 0.19948495 -6.13937525 -1.47393731 0 0 Z " fill="#060808" transform="translate(207,53)"/>
<path d="M0 0 C0.33 0 0.66 0 1 0 C1 17.49 1 34.98 1 53 C-1.12567359 50.87432641 -1.63043192 49.67608418 -2.5625 46.875 C-2.81128906 46.15054688 -3.06007812 45.42609375 -3.31640625 44.6796875 C-6.91168609 30.58619054 -6.60161513 13.20323027 0 0 Z " fill="#5CD9DE" transform="translate(193,76)"/>
<path d="M0 0 C2.27864583 0.06510417 4.55729167 0.13020833 6.8359375 0.1953125 C6.8359375 3.1653125 6.8359375 6.1353125 6.8359375 9.1953125 C5.1859375 9.5253125 3.5359375 9.8553125 1.8359375 10.1953125 C0.07131067 7.10721555 -0.1640625 5.96219114 -0.1640625 2.1953125 C-1.1540625 2.6903125 -1.1540625 2.6903125 -2.1640625 3.1953125 C-2.81619542 5.21994505 -2.81619542 5.21994505 -3.1640625 7.1953125 C-2.5040625 7.1953125 -1.8440625 7.1953125 -1.1640625 7.1953125 C-1.1640625 7.8553125 -1.1640625 8.5153125 -1.1640625 9.1953125 C-2.4840625 8.5353125 -3.8040625 7.8753125 -5.1640625 7.1953125 C-4.08619049 0.36878976 -4.08619049 0.36878976 0 0 Z " fill="#1E4241" transform="translate(297.1640625,101.8046875)"/>
<path d="M0 0 C1.65 1.32 3.3 2.64 5 4 C7.49361571 2.79618552 9.68143083 1.54571278 12 0 C11.60196439 2.88575819 11.20990931 3.82189513 8.9375 5.75 C8.298125 6.1625 7.65875 6.575 7 7 C8.65 7.33 10.3 7.66 12 8 C12 8.66 12 9.32 12 10 C6.72 10 1.44 10 -4 10 C-4 9.34 -4 8.68 -4 8 C-1.36 7.67 1.28 7.34 4 7 C3.34 6.401875 2.68 5.80375 2 5.1875 C0 3 0 3 0 0 Z " fill="#0B1417" transform="translate(292,77)"/>
<path d="M0 0 C0.99 0 1.98 0 3 0 C3 0.66 3 1.32 3 2 C5.31 2 7.62 2 10 2 C10 1.34 10 0.68 10 0 C10.66 0 11.32 0 12 0 C11.67 1.65 11.34 3.3 11 5 C8.03 5 5.06 5 2 5 C2 5.66 2 6.32 2 7 C1.34 7 0.68 7 0 7 C0 6.34 0 5.68 0 5 C-1.32 5 -2.64 5 -4 5 C-4 4.01 -4 3.02 -4 2 C-2.68 2 -1.36 2 0 2 C0 1.34 0 0.68 0 0 Z " fill="#1A3A3B" transform="translate(292,122)"/>
<path d="M0 0 C1.32 0.66 2.64 1.32 4 2 C4.36 7.4 4.36 7.4 2.875 9.875 C0.08893958 11.54663625 -1.81988862 11.46376624 -5 11 C-6.9375 9.3125 -6.9375 9.3125 -8 7 C-7.6875 4.25 -7.6875 4.25 -7 2 C-6.01 1.67 -5.02 1.34 -4 1 C-4.33 2.98 -4.66 4.96 -5 7 C-1.52852158 7.74957157 -1.52852158 7.74957157 2 8 C2 6.35 2 4.7 2 3 C1.34 3 0.68 3 0 3 C0 2.01 0 1.02 0 0 Z " fill="#111E1F" transform="translate(300,89)"/>
<path d="M0 0 C0.99 0 1.98 0 3 0 C3.33 0.99 3.66 1.98 4 3 C6.64 3.33 9.28 3.66 12 4 C12 4.66 12 5.32 12 6 C8.37 6 4.74 6 1 6 C0.67 4.02 0.34 2.04 0 0 Z " fill="#07131C" transform="translate(292,113)"/>
<path d="M0 0 C0.66 0 1.32 0 2 0 C3.125 5.75 3.125 5.75 2 8 C1.34 7.67 0.68 7.34 0 7 C0.33 6.34 0.66 5.68 1 5 C0.34 5 -0.32 5 -1 5 C-0.67 3.35 -0.34 1.7 0 0 Z " fill="#40AEB7" transform="translate(295,104)"/>
<path d="M0 0 C0.66 0 1.32 0 2 0 C1.835 0.928125 1.67 1.85625 1.5 2.8125 C0.92251612 5.95621353 0.92251612 5.95621353 1 9 C-0.5625 7.8125 -0.5625 7.8125 -2 6 C-1.57894737 1.57894737 -1.57894737 1.57894737 0 0 Z " fill="#1A2917" transform="translate(294,90)"/>
</svg>
